<?xml version="1.0" standalone="no"?>
<!DOCTYPE svg PUBLIC "-//W3C//DTD SVG 20010904//EN"
 "http://www.w3.org/TR/2001/REC-SVG-20010904/DTD/svg10.dtd">
<svg version="1.0" xmlns="http://www.w3.org/2000/svg"
 width="1085.000000pt" height="376.000000pt" viewBox="0 0 1085.000000 376.000000"
 preserveAspectRatio="xMidYMid meet">

<g transform="translate(0.000000,376.000000) scale(0.100000,-0.100000)"
fill="#000000" stroke="none">
<path d="M2182 3740 c-20 -21 -126 -264 -136 -312 -3 -15 12 -177 34 -360 104
-849 142 -1221 146 -1423 6 -233 9 -265 30 -265 20 0 59 90 78 183 51 246 47
585 -14 1202 -16 165 -43 445 -60 622 -27 289 -39 373 -54 373 -3 0 -14 -9
-24 -20z"/>
</g>
</svg>
